<svg width="75" height="51" viewBox="0 0 75 51" fill="none" xmlns="http://www.w3.org/2000/svg">
<path fill-rule="evenodd" clip-rule="evenodd" d="M2.57638 2.80318C-1.963 7.72523 -0.341682 13.7621 6.1633 16.1702C14.7219 19.336 22.4842 11.0458 17.6885 3.8629C14.5838 -0.786776 6.41507 -1.3598 2.57638 2.80318ZM66.1945 2.59034C65.6151 4.37936 63.9786 6.14308 62.5575 6.51071C60.3766 7.07332 60.3523 7.20429 62.3968 7.35015C63.7299 7.44541 65.5605 9.02904 66.466 10.8716L68.1116 14.2205L68.2132 10.8716C68.2875 8.45453 69.2657 7.49304 71.7288 7.41862C74.8516 7.32188 74.8941 7.21918 72.2217 6.19071C70.6156 5.57304 68.8396 3.77806 68.2754 2.20188C67.3032 -0.511427 67.1925 -0.49059 66.1945 2.59034ZM21.3785 30.2205L21.2996 50.6856H29.6413H37.983V34.4356C37.983 16.1509 38.5896 13.4763 42.7332 13.4763C46.9889 13.4763 48.2811 18.6201 47.45 32.2729C46.7887 43.1574 47.0375 44.6875 49.9328 47.5288C53.8883 51.4104 59.8761 51.5608 66.742 47.947C73.335 44.4776 74.0933 42.3626 68.7152 42.44C64.1804 42.504 64.514 43.8659 63.871 22.664C63.8133 20.7589 61.7719 17.2434 59.3331 14.8501C53.8943 9.51276 45.4025 9.00225 36.4663 13.4763C28.8633 17.2836 26.7657 17.221 23.8385 13.1042C21.6242 9.98904 21.4528 11.1842 21.3785 30.2205ZM1.58297 33.8V50.6856H9.92463H18.2663V36.6339C18.2663 21.1652 18.2618 21.1578 8.0288 18.5531L1.58297 16.9129V33.8Z" fill="#DE8938"/>
</svg>
