<svg width="48" height="33" viewBox="0 0 48 33" fill="none" xmlns="http://www.w3.org/2000/svg">
<path fill-rule="evenodd" clip-rule="evenodd" d="M1.66772 1.82507C-1.27067 5.02968 -0.221174 8.9601 3.98956 10.528C9.52959 12.5891 14.5542 7.19161 11.4499 2.51503C9.44025 -0.512248 4.15253 -0.885327 1.66772 1.82507ZM42.8483 1.6865C42.4733 2.85128 41.414 3.99959 40.4941 4.23895C39.0823 4.60524 39.0666 4.69052 40.39 4.78548C41.253 4.8475 42.4379 5.87856 43.0241 7.07823L44.0893 9.25856L44.155 7.07823C44.2031 5.50451 44.8364 4.87851 46.4307 4.83006C48.4522 4.76707 48.4797 4.70021 46.7498 4.0306C45.7101 3.62845 44.5605 2.45979 44.1953 1.43358C43.566 -0.332976 43.4943 -0.31941 42.8483 1.6865ZM13.8385 19.6757L13.7875 33H19.1871H24.5867V22.42C24.5867 10.5154 24.9794 8.77405 27.6616 8.77405C30.4164 8.77405 31.2528 12.123 30.7148 21.012C30.2868 28.0986 30.4478 29.0948 32.322 30.9447C34.8824 33.4719 38.7583 33.5698 43.2027 31.217C47.4704 28.9581 47.9613 27.5811 44.48 27.6315C41.5446 27.6732 41.7605 28.5599 41.3443 14.7559C41.307 13.5155 39.9855 11.2267 38.4069 9.66847C34.8863 6.1935 29.3895 5.86112 23.605 8.77405C18.6835 11.2528 17.3257 11.2121 15.4309 8.53179C13.9976 6.50359 13.8866 7.28173 13.8385 19.6757ZM1.02467 22.0063V33H6.42431H11.824V23.8513C11.824 13.7801 11.821 13.7753 5.19712 12.0794L1.02467 11.0116V22.0063Z" fill="#DE8938"/>
</svg>
