<svg width="64" height="44" viewBox="0 0 64 44" fill="none" xmlns="http://www.w3.org/2000/svg">
<path fill-rule="evenodd" clip-rule="evenodd" d="M2.22362 2.43343C-1.69422 6.70624 -0.294898 11.9468 5.31942 14.0373C12.7061 16.7855 19.4056 9.58881 15.2665 3.35337C12.587 -0.682997 5.53671 -1.18044 2.22362 2.43343ZM57.1311 2.24867C56.6311 3.80171 55.2186 5.33279 53.9921 5.65193C52.1098 6.14032 52.0888 6.25402 53.8533 6.38064C55.004 6.46334 56.5839 7.83808 57.3654 9.43764L58.7857 12.3448L58.8734 9.43764C58.9375 7.33935 59.7818 6.50468 61.9076 6.44008C64.6029 6.3561 64.6395 6.26694 62.3331 5.37414C60.9468 4.83793 59.414 3.27972 58.927 1.91144C58.088 -0.443968 57.9924 -0.425879 57.1311 2.24867ZM18.4513 26.2343L18.3833 44H25.5828H32.7823V29.8934C32.7823 14.0205 33.3059 11.6987 36.8821 11.6987C40.5552 11.6987 41.6704 16.1641 40.9531 28.016C40.3824 37.4648 40.5971 38.793 43.096 41.2596C46.5098 44.6292 51.6778 44.7597 57.6036 41.6226C63.2939 38.6109 63.9484 36.7748 59.3067 36.842C55.3927 36.8976 55.6807 38.0798 55.1257 19.6746C55.076 18.0207 53.314 14.9689 51.2092 12.8913C46.5151 8.258 39.186 7.81482 31.4733 11.6987C24.9113 15.0038 23.1009 14.9495 20.5745 11.3757C18.6634 8.67145 18.5155 9.70897 18.4513 26.2343ZM1.36623 29.3417V44H8.56575H15.7653V31.8017C15.7653 18.3735 15.7613 18.367 6.92949 16.1059L1.36623 14.6821V29.3417Z" fill="#DE8938"/>
</svg>
